# xmcd CD database file
#
# Track frame offsets:
#	150
#	14393
#	34601
#	51295
#	82486
#	100372
#	118733
#	136580
#	157020
#	177631
#	198781
#	217668
#	235662
#	259418
#
# Disc length: 3929 seconds
#
# Revision: 4
# Processed by: cddbd v1.5.2PL0 Copyright (c) Steve Scherf et al.
# Submitted via: CDex 1.99.1
#
DISCID=c10f570e
DTITLE=Alexander Peskanov - Scott Joplin - Piano Rags
DYEAR=2004
DGENRE=Klavier
TTITLE0=Maple Leaf Rag
TTITLE1=Heliotrope Bouquet, A Slow Drag Two-Step
TTITLE2=Pine Apple Rag
TTITLE3=Solace, A Mexican Serenade
TTITLE4=Paragon Rag
TTITLE5=Pleasant Moments, Ragtime Waltz
TTITLE6=Elite Syncopations
TTITLE7=Original Rags
TTITLE8=Fig Leaf, A High-class Rag
TTITLE9=The Entertainer, A Ragtime Two-Step
TTITLE10=The Easy Winners
TTITLE11=Country Club Rag
TTITLE12=The Strenuous Rag
TTITLE13=Bethena, A Concert Waltz
EXTD=YEAR: 2004
EXTT0=
EXTT1=
EXTT2=
EXTT3=
EXTT4=
EXTT5=
EXTT6=
EXTT7=
EXTT8=
EXTT9=
EXTT10=
EXTT11=
EXTT12=
EXTT13=
PLAYORDER=
